<mxfile host="65bd71144e">
    <diagram id="LXQMVHz-Vroer2iX2WeX" name="Page-1">
        <mxGraphModel dx="1825" dy="425" grid="1" gridSize="10" guides="1" tooltips="1" connect="1" arrows="1" fold="1" page="1" pageScale="1" pageWidth="850" pageHeight="1100" math="0" shadow="0">
            <root>
                <mxCell id="0"/>
                <mxCell id="1" parent="0"/>
                <mxCell id="2" value="user" style="whiteSpace=wrap;html=1;align=center;rounded=1;" vertex="1" parent="1">
                    <mxGeometry x="270" y="270" width="100" height="40" as="geometry"/>
                </mxCell>
                <mxCell id="3" value="username" style="ellipse;whiteSpace=wrap;html=1;align=center;" vertex="1" parent="1">
                    <mxGeometry x="450" y="260" width="100" height="40" as="geometry"/>
                </mxCell>
                <mxCell id="4" value="role" style="ellipse;whiteSpace=wrap;html=1;align=center;" vertex="1" parent="1">
                    <mxGeometry x="110" y="320" width="100" height="40" as="geometry"/>
                </mxCell>
                <mxCell id="5" value="email" style="ellipse;whiteSpace=wrap;html=1;align=center;" vertex="1" parent="1">
                    <mxGeometry x="440" y="320" width="100" height="40" as="geometry"/>
                </mxCell>
                <mxCell id="6" value="key" style="ellipse;whiteSpace=wrap;html=1;align=center;fontStyle=4;" vertex="1" parent="1">
                    <mxGeometry x="110" y="260" width="100" height="40" as="geometry"/>
                </mxCell>
                <mxCell id="7" value="registers" style="shape=rhombus;perimeter=rhombusPerimeter;whiteSpace=wrap;html=1;align=center;" vertex="1" parent="1">
                    <mxGeometry x="260" y="410" width="120" height="60" as="geometry"/>
                </mxCell>
                <mxCell id="8" value="inventory_system" style="rounded=1;arcSize=10;whiteSpace=wrap;html=1;align=center;" vertex="1" parent="1">
                    <mxGeometry x="270" y="510" width="100" height="40" as="geometry"/>
                </mxCell>
                <mxCell id="9" value="owner" style="ellipse;whiteSpace=wrap;html=1;align=center;" vertex="1" parent="1">
                    <mxGeometry x="440" y="510" width="100" height="40" as="geometry"/>
                </mxCell>
                <mxCell id="10" value="s_name" style="ellipse;whiteSpace=wrap;html=1;align=center;" vertex="1" parent="1">
                    <mxGeometry x="410" y="440" width="100" height="40" as="geometry"/>
                </mxCell>
                <mxCell id="11" value="" style="endArrow=none;html=1;rounded=0;entryX=0;entryY=0.5;entryDx=0;entryDy=0;exitX=1;exitY=0.25;exitDx=0;exitDy=0;" edge="1" parent="1" source="2" target="3">
                    <mxGeometry relative="1" as="geometry">
                        <mxPoint x="330" y="350" as="sourcePoint"/>
                        <mxPoint x="490" y="350" as="targetPoint"/>
                    </mxGeometry>
                </mxCell>
                <mxCell id="12" value="" style="endArrow=none;html=1;rounded=0;entryX=0;entryY=0.5;entryDx=0;entryDy=0;exitX=1;exitY=0.5;exitDx=0;exitDy=0;" edge="1" parent="1" source="2" target="5">
                    <mxGeometry relative="1" as="geometry">
                        <mxPoint x="330" y="350" as="sourcePoint"/>
                        <mxPoint x="490" y="350" as="targetPoint"/>
                    </mxGeometry>
                </mxCell>
                <mxCell id="44" style="edgeStyle=none;html=1;entryX=0;entryY=0.5;entryDx=0;entryDy=0;" edge="1" parent="1" target="2">
                    <mxGeometry relative="1" as="geometry">
                        <mxPoint x="270" y="290" as="sourcePoint"/>
                    </mxGeometry>
                </mxCell>
                <mxCell id="15" value="" style="endArrow=none;html=1;rounded=0;entryX=1;entryY=0.5;entryDx=0;entryDy=0;exitX=0;exitY=0.25;exitDx=0;exitDy=0;" edge="1" parent="1" source="2" target="6">
                    <mxGeometry relative="1" as="geometry">
                        <mxPoint x="330" y="350" as="sourcePoint"/>
                        <mxPoint x="490" y="350" as="targetPoint"/>
                    </mxGeometry>
                </mxCell>
                <mxCell id="16" value="" style="endArrow=none;html=1;rounded=0;exitX=1;exitY=0;exitDx=0;exitDy=0;entryX=0;entryY=1;entryDx=0;entryDy=0;" edge="1" parent="1" source="8" target="10">
                    <mxGeometry relative="1" as="geometry">
                        <mxPoint x="330" y="350" as="sourcePoint"/>
                        <mxPoint x="490" y="350" as="targetPoint"/>
                    </mxGeometry>
                </mxCell>
                <mxCell id="17" value="" style="endArrow=none;html=1;rounded=0;exitX=0;exitY=0.5;exitDx=0;exitDy=0;entryX=1;entryY=0.5;entryDx=0;entryDy=0;" edge="1" parent="1" source="8">
                    <mxGeometry relative="1" as="geometry">
                        <mxPoint x="330" y="350" as="sourcePoint"/>
                        <mxPoint x="200" y="530" as="targetPoint"/>
                    </mxGeometry>
                </mxCell>
                <mxCell id="18" value="" style="endArrow=none;html=1;rounded=0;exitX=1;exitY=0.5;exitDx=0;exitDy=0;entryX=0;entryY=0.5;entryDx=0;entryDy=0;" edge="1" parent="1" source="8" target="9">
                    <mxGeometry relative="1" as="geometry">
                        <mxPoint x="330" y="350" as="sourcePoint"/>
                        <mxPoint x="490" y="350" as="targetPoint"/>
                    </mxGeometry>
                </mxCell>
                <mxCell id="19" value="c_name" style="ellipse;whiteSpace=wrap;html=1;align=center;" vertex="1" parent="1">
                    <mxGeometry x="385" y="900.0000000000001" width="100" height="40" as="geometry"/>
                </mxCell>
                <mxCell id="20" value="credit_hour" style="ellipse;whiteSpace=wrap;html=1;align=center;" vertex="1" parent="1">
                    <mxGeometry x="440" y="840.1800000000001" width="100" height="40" as="geometry"/>
                </mxCell>
                <mxCell id="21" value="c_id" style="ellipse;whiteSpace=wrap;html=1;align=center;fontStyle=4;" vertex="1" parent="1">
                    <mxGeometry x="160" y="900.0000000000001" width="100" height="40" as="geometry"/>
                </mxCell>
                <mxCell id="22" value="" style="endArrow=none;html=1;rounded=0;exitX=0.5;exitY=1;exitDx=0;exitDy=0;" edge="1" parent="1" target="19">
                    <mxGeometry relative="1" as="geometry">
                        <mxPoint x="320" y="880.1800000000001" as="sourcePoint"/>
                        <mxPoint x="490" y="840.1800000000001" as="targetPoint"/>
                    </mxGeometry>
                </mxCell>
                <mxCell id="23" value="" style="endArrow=none;html=1;rounded=0;entryX=1;entryY=0;entryDx=0;entryDy=0;" edge="1" parent="1" target="21">
                    <mxGeometry relative="1" as="geometry">
                        <mxPoint x="320" y="880.1800000000001" as="sourcePoint"/>
                        <mxPoint x="490" y="840.1800000000001" as="targetPoint"/>
                    </mxGeometry>
                </mxCell>
                <mxCell id="24" value="" style="endArrow=none;html=1;rounded=0;exitX=1;exitY=0.5;exitDx=0;exitDy=0;entryX=0;entryY=0.5;entryDx=0;entryDy=0;" edge="1" parent="1" target="20" source="27">
                    <mxGeometry relative="1" as="geometry">
                        <mxPoint x="320" y="880.1800000000001" as="sourcePoint"/>
                        <mxPoint x="490" y="840.1800000000001" as="targetPoint"/>
                    </mxGeometry>
                </mxCell>
                <mxCell id="25" value="system_id" style="ellipse;whiteSpace=wrap;html=1;align=center;fontStyle=4;" vertex="1" parent="1">
                    <mxGeometry x="100" y="510" width="100" height="40" as="geometry"/>
                </mxCell>
                <mxCell id="27" value="product" style="shape=ext;margin=3;double=1;whiteSpace=wrap;html=1;align=center;" vertex="1" parent="1">
                    <mxGeometry x="270" y="840.1800000000001" width="100" height="40" as="geometry"/>
                </mxCell>
                <mxCell id="29" value="" style="endArrow=none;html=1;rounded=0;entryX=0.5;entryY=0;entryDx=0;entryDy=0;exitX=0.5;exitY=1;exitDx=0;exitDy=0;" edge="1" parent="1" source="7" target="8">
                    <mxGeometry relative="1" as="geometry">
                        <mxPoint x="130" y="480" as="sourcePoint"/>
                        <mxPoint x="290" y="480" as="targetPoint"/>
                    </mxGeometry>
                </mxCell>
                <mxCell id="30" value="1" style="resizable=0;html=1;align=right;verticalAlign=bottom;" connectable="0" vertex="1" parent="29">
                    <mxGeometry x="1" relative="1" as="geometry">
                        <mxPoint x="20" y="-10" as="offset"/>
                    </mxGeometry>
                </mxCell>
                <mxCell id="31" value="" style="endArrow=none;html=1;rounded=0;exitX=0.5;exitY=0;exitDx=0;exitDy=0;entryX=0.5;entryY=1;entryDx=0;entryDy=0;fontSize=11;verticalAlign=middle;spacingTop=0;spacing=2;" edge="1" parent="1" source="7" target="2">
                    <mxGeometry relative="1" as="geometry">
                        <mxPoint x="350" y="510" as="sourcePoint"/>
                        <mxPoint x="510" y="510" as="targetPoint"/>
                    </mxGeometry>
                </mxCell>
                <mxCell id="32" value="N" style="resizable=0;html=1;align=right;verticalAlign=bottom;" connectable="0" vertex="1" parent="31">
                    <mxGeometry x="1" relative="1" as="geometry">
                        <mxPoint x="20" y="40" as="offset"/>
                    </mxGeometry>
                </mxCell>
                <mxCell id="35" value="" style="endArrow=none;html=1;rounded=0;fontSize=11;exitX=0.5;exitY=1;exitDx=0;exitDy=0;entryX=0.498;entryY=0.032;entryDx=0;entryDy=0;entryPerimeter=0;" edge="1" parent="1" source="8" target="106">
                    <mxGeometry relative="1" as="geometry">
                        <mxPoint x="400" y="600" as="sourcePoint"/>
                        <mxPoint x="320" y="600" as="targetPoint"/>
                    </mxGeometry>
                </mxCell>
                <mxCell id="36" value="1" style="resizable=0;html=1;align=right;verticalAlign=bottom;fontSize=11;" connectable="0" vertex="1" parent="35">
                    <mxGeometry x="1" relative="1" as="geometry">
                        <mxPoint x="19" y="-26" as="offset"/>
                    </mxGeometry>
                </mxCell>
                <mxCell id="39" value="password" style="ellipse;whiteSpace=wrap;html=1;align=center;" vertex="1" parent="1">
                    <mxGeometry x="375" y="370" width="100" height="40" as="geometry"/>
                </mxCell>
                <mxCell id="40" value="profile" style="ellipse;whiteSpace=wrap;html=1;align=center;" vertex="1" parent="1">
                    <mxGeometry x="170" y="370" width="100" height="40" as="geometry"/>
                </mxCell>
                <mxCell id="43" value="" style="endArrow=none;html=1;rounded=0;exitX=1;exitY=0;exitDx=0;exitDy=0;entryX=0.026;entryY=0.943;entryDx=0;entryDy=0;entryPerimeter=0;" edge="1" parent="1" source="40" target="2">
                    <mxGeometry relative="1" as="geometry">
                        <mxPoint x="215.36" y="355.86" as="sourcePoint"/>
                        <mxPoint x="270" y="310" as="targetPoint"/>
                    </mxGeometry>
                </mxCell>
                <mxCell id="47" value="total_category" style="ellipse;whiteSpace=wrap;html=1;align=center;" vertex="1" parent="1">
                    <mxGeometry x="700" y="720" width="100" height="40" as="geometry"/>
                </mxCell>
                <mxCell id="49" value="category_id" style="ellipse;whiteSpace=wrap;html=1;align=center;fontStyle=4;" vertex="1" parent="1">
                    <mxGeometry x="670" y="790" width="100" height="40" as="geometry"/>
                </mxCell>
                <mxCell id="50" value="" style="endArrow=none;html=1;rounded=0;exitX=1;exitY=0.5;exitDx=0;exitDy=0;" edge="1" parent="1" target="47">
                    <mxGeometry relative="1" as="geometry">
                        <mxPoint x="640" y="740" as="sourcePoint"/>
                        <mxPoint x="760" y="720" as="targetPoint"/>
                    </mxGeometry>
                </mxCell>
                <mxCell id="51" value="" style="endArrow=none;html=1;rounded=0;entryX=0;entryY=0;entryDx=0;entryDy=0;" edge="1" parent="1" target="49">
                    <mxGeometry relative="1" as="geometry">
                        <mxPoint x="590" y="760" as="sourcePoint"/>
                        <mxPoint x="760" y="720" as="targetPoint"/>
                    </mxGeometry>
                </mxCell>
                <mxCell id="54" value="" style="shape=link;html=1;rounded=0;fontSize=11;exitX=0.5;exitY=1;exitDx=0;exitDy=0;entryX=0.5;entryY=0;entryDx=0;entryDy=0;" edge="1" parent="1">
                    <mxGeometry relative="1" as="geometry">
                        <mxPoint x="320" y="660" as="sourcePoint"/>
                        <mxPoint x="590" y="720" as="targetPoint"/>
                    </mxGeometry>
                </mxCell>
                <mxCell id="55" value="M" style="resizable=0;html=1;align=right;verticalAlign=bottom;fontSize=11;" connectable="0" vertex="1" parent="54">
                    <mxGeometry x="1" relative="1" as="geometry">
                        <mxPoint x="-120" y="-40" as="offset"/>
                    </mxGeometry>
                </mxCell>
                <mxCell id="56" value="" style="shape=link;html=1;rounded=0;fontSize=11;exitX=1;exitY=0.5;exitDx=0;exitDy=0;entryX=0;entryY=0.5;entryDx=0;entryDy=0;" edge="1" parent="1">
                    <mxGeometry relative="1" as="geometry">
                        <mxPoint x="380" y="630" as="sourcePoint"/>
                        <mxPoint x="670" y="560" as="targetPoint"/>
                    </mxGeometry>
                </mxCell>
                <mxCell id="57" value="1" style="resizable=0;html=1;align=right;verticalAlign=bottom;fontSize=11;" connectable="0" vertex="1" parent="56">
                    <mxGeometry x="1" relative="1" as="geometry">
                        <mxPoint x="-190" y="40" as="offset"/>
                    </mxGeometry>
                </mxCell>
                <mxCell id="58" value="total&lt;br&gt;shareholder" style="ellipse;whiteSpace=wrap;html=1;align=center;" vertex="1" parent="1">
                    <mxGeometry x="670" y="620" width="100" height="40" as="geometry"/>
                </mxCell>
                <mxCell id="59" value="total_amount" style="ellipse;whiteSpace=wrap;html=1;align=center;" vertex="1" parent="1">
                    <mxGeometry x="840" y="620" width="100" height="40" as="geometry"/>
                </mxCell>
                <mxCell id="60" value="e_id" style="ellipse;whiteSpace=wrap;html=1;align=center;fontStyle=4;" vertex="1" parent="1">
                    <mxGeometry x="500" y="620" width="100" height="40" as="geometry"/>
                </mxCell>
                <mxCell id="61" value="" style="endArrow=none;html=1;rounded=0;exitX=0.5;exitY=1;exitDx=0;exitDy=0;" edge="1" parent="1" target="58">
                    <mxGeometry relative="1" as="geometry">
                        <mxPoint x="720" y="580" as="sourcePoint"/>
                        <mxPoint x="890" y="540" as="targetPoint"/>
                    </mxGeometry>
                </mxCell>
                <mxCell id="62" value="" style="endArrow=none;html=1;rounded=0;entryX=1;entryY=0;entryDx=0;entryDy=0;" edge="1" parent="1" target="60">
                    <mxGeometry relative="1" as="geometry">
                        <mxPoint x="720" y="580" as="sourcePoint"/>
                        <mxPoint x="890" y="540" as="targetPoint"/>
                    </mxGeometry>
                </mxCell>
                <mxCell id="63" value="" style="endArrow=none;html=1;rounded=0;exitX=0.5;exitY=1;exitDx=0;exitDy=0;" edge="1" parent="1" target="59">
                    <mxGeometry relative="1" as="geometry">
                        <mxPoint x="720" y="580" as="sourcePoint"/>
                        <mxPoint x="890" y="540" as="targetPoint"/>
                    </mxGeometry>
                </mxCell>
                <mxCell id="72" value="expense" style="ellipse;whiteSpace=wrap;html=1;align=center;" vertex="1" parent="1">
                    <mxGeometry x="-60" y="830.0000000000001" width="100" height="40" as="geometry"/>
                </mxCell>
                <mxCell id="73" value="sales" style="ellipse;whiteSpace=wrap;html=1;align=center;" vertex="1" parent="1">
                    <mxGeometry x="170" y="800.1800000000001" width="100" height="40" as="geometry"/>
                </mxCell>
                <mxCell id="74" value="p_id" style="ellipse;whiteSpace=wrap;html=1;align=center;fontStyle=4;" vertex="1" parent="1">
                    <mxGeometry x="-170" y="800.1800000000001" width="100" height="40" as="geometry"/>
                </mxCell>
                <mxCell id="75" value="" style="endArrow=none;html=1;rounded=0;exitX=0.5;exitY=1;exitDx=0;exitDy=0;" edge="1" parent="1" target="72">
                    <mxGeometry relative="1" as="geometry">
                        <mxPoint x="50" y="760.1800000000001" as="sourcePoint"/>
                        <mxPoint x="220" y="720.1800000000001" as="targetPoint"/>
                    </mxGeometry>
                </mxCell>
                <mxCell id="76" value="" style="endArrow=none;html=1;rounded=0;entryX=1;entryY=0;entryDx=0;entryDy=0;" edge="1" parent="1" target="74">
                    <mxGeometry relative="1" as="geometry">
                        <mxPoint x="50" y="760.1800000000001" as="sourcePoint"/>
                        <mxPoint x="220" y="720.1800000000001" as="targetPoint"/>
                    </mxGeometry>
                </mxCell>
                <mxCell id="77" value="" style="endArrow=none;html=1;rounded=0;exitX=0.5;exitY=1;exitDx=0;exitDy=0;" edge="1" parent="1" target="73">
                    <mxGeometry relative="1" as="geometry">
                        <mxPoint x="50" y="760.1800000000001" as="sourcePoint"/>
                        <mxPoint x="220" y="720.1800000000001" as="targetPoint"/>
                    </mxGeometry>
                </mxCell>
                <mxCell id="79" value="" style="shape=link;html=1;rounded=0;fontSize=11;exitX=0.5;exitY=1;exitDx=0;exitDy=0;entryX=1;entryY=0.5;entryDx=0;entryDy=0;" edge="1" parent="1">
                    <mxGeometry relative="1" as="geometry">
                        <mxPoint x="320" y="660" as="sourcePoint"/>
                        <mxPoint x="100" y="740.1800000000001" as="targetPoint"/>
                    </mxGeometry>
                </mxCell>
                <mxCell id="80" value="M" style="resizable=0;html=1;align=right;verticalAlign=bottom;fontSize=11;" connectable="0" vertex="1" parent="79">
                    <mxGeometry x="1" relative="1" as="geometry">
                        <mxPoint x="50" y="-30" as="offset"/>
                    </mxGeometry>
                </mxCell>
                <mxCell id="82" value="date" style="ellipse;whiteSpace=wrap;html=1;align=center;" vertex="1" parent="1">
                    <mxGeometry x="-160" y="620" width="100" height="40" as="geometry"/>
                </mxCell>
                <mxCell id="83" value="cost_price" style="ellipse;whiteSpace=wrap;html=1;align=center;" vertex="1" parent="1">
                    <mxGeometry x="10" y="620" width="100" height="40" as="geometry"/>
                </mxCell>
                <mxCell id="84" value="sale_id" style="ellipse;whiteSpace=wrap;html=1;align=center;fontStyle=4;" vertex="1" parent="1">
                    <mxGeometry x="-330" y="620" width="100" height="40" as="geometry"/>
                </mxCell>
                <mxCell id="85" value="" style="endArrow=none;html=1;rounded=0;exitX=0.5;exitY=1;exitDx=0;exitDy=0;" edge="1" parent="1" target="82">
                    <mxGeometry relative="1" as="geometry">
                        <mxPoint x="-110" y="580.0000000000005" as="sourcePoint"/>
                        <mxPoint x="60" y="540" as="targetPoint"/>
                    </mxGeometry>
                </mxCell>
                <mxCell id="86" value="" style="endArrow=none;html=1;rounded=0;entryX=1;entryY=0;entryDx=0;entryDy=0;" edge="1" parent="1" target="84">
                    <mxGeometry relative="1" as="geometry">
                        <mxPoint x="-110" y="580.0000000000005" as="sourcePoint"/>
                        <mxPoint x="60" y="540" as="targetPoint"/>
                    </mxGeometry>
                </mxCell>
                <mxCell id="87" value="" style="endArrow=none;html=1;rounded=0;exitX=0.5;exitY=1;exitDx=0;exitDy=0;" edge="1" parent="1" target="83">
                    <mxGeometry relative="1" as="geometry">
                        <mxPoint x="-110" y="580.0000000000005" as="sourcePoint"/>
                        <mxPoint x="60" y="540" as="targetPoint"/>
                    </mxGeometry>
                </mxCell>
                <mxCell id="89" value="" style="shape=link;html=1;rounded=0;fontSize=11;exitX=0;exitY=0.5;exitDx=0;exitDy=0;entryX=1;entryY=0.5;entryDx=0;entryDy=0;" edge="1" parent="1">
                    <mxGeometry relative="1" as="geometry">
                        <mxPoint x="260" y="630" as="sourcePoint"/>
                        <mxPoint x="-60" y="560" as="targetPoint"/>
                    </mxGeometry>
                </mxCell>
                <mxCell id="90" value="M" style="resizable=0;html=1;align=right;verticalAlign=bottom;fontSize=11;" connectable="0" vertex="1" parent="89">
                    <mxGeometry x="1" relative="1" as="geometry">
                        <mxPoint x="80" y="10" as="offset"/>
                    </mxGeometry>
                </mxCell>
                <mxCell id="91" value="selling_price" style="ellipse;whiteSpace=wrap;html=1;align=center;" vertex="1" parent="1">
                    <mxGeometry x="-350" y="540.13" width="100" height="40" as="geometry"/>
                </mxCell>
                <mxCell id="92" value="" style="endArrow=none;html=1;rounded=0;exitX=0;exitY=0.5;exitDx=0;exitDy=0;entryX=1;entryY=0.5;entryDx=0;entryDy=0;" edge="1" parent="1" target="91">
                    <mxGeometry relative="1" as="geometry">
                        <mxPoint x="-160" y="560" as="sourcePoint"/>
                        <mxPoint x="-100" y="630" as="targetPoint"/>
                    </mxGeometry>
                </mxCell>
                <mxCell id="93" value="expected_profit" style="ellipse;whiteSpace=wrap;html=1;align=center;" vertex="1" parent="1">
                    <mxGeometry x="-170" y="720.1800000000001" width="100" height="40" as="geometry"/>
                </mxCell>
                <mxCell id="94" value="" style="endArrow=none;html=1;rounded=0;exitX=0;exitY=0.5;exitDx=0;exitDy=0;entryX=1;entryY=0.5;entryDx=0;entryDy=0;" edge="1" parent="1" target="93">
                    <mxGeometry relative="1" as="geometry">
                        <mxPoint y="740.1800000000001" as="sourcePoint"/>
                        <mxPoint x="-100" y="770.1300000000001" as="targetPoint"/>
                    </mxGeometry>
                </mxCell>
                <mxCell id="95" value="date_range" style="ellipse;whiteSpace=wrap;html=1;align=center;" vertex="1" parent="1">
                    <mxGeometry x="60" y="830.0000000000001" width="100" height="40" as="geometry"/>
                </mxCell>
                <mxCell id="96" value="" style="endArrow=none;html=1;rounded=0;exitX=0.5;exitY=1;exitDx=0;exitDy=0;entryX=0.5;entryY=0;entryDx=0;entryDy=0;" edge="1" parent="1" target="95">
                    <mxGeometry relative="1" as="geometry">
                        <mxPoint x="50" y="760.1800000000001" as="sourcePoint"/>
                        <mxPoint x="10.729967448215348" y="860.4659566968389" as="targetPoint"/>
                    </mxGeometry>
                </mxCell>
                <mxCell id="97" value="shareholder&lt;br&gt;name" style="ellipse;whiteSpace=wrap;html=1;align=center;" vertex="1" parent="1">
                    <mxGeometry x="840" y="540.13" width="100" height="40" as="geometry"/>
                </mxCell>
                <mxCell id="98" value="" style="endArrow=none;html=1;rounded=0;exitX=1;exitY=0.5;exitDx=0;exitDy=0;entryX=0;entryY=0.5;entryDx=0;entryDy=0;" edge="1" parent="1" target="97">
                    <mxGeometry relative="1" as="geometry">
                        <mxPoint x="770" y="560" as="sourcePoint"/>
                        <mxPoint x="862.5081072317525" y="636.7675672582657" as="targetPoint"/>
                    </mxGeometry>
                </mxCell>
                <mxCell id="100" value="includes" style="shape=rhombus;double=1;perimeter=rhombusPerimeter;whiteSpace=wrap;html=1;align=center;" vertex="1" parent="1">
                    <mxGeometry x="260" y="720" width="120" height="60" as="geometry"/>
                </mxCell>
                <mxCell id="101" value="" style="shape=link;html=1;rounded=0;fontSize=11;exitX=0.5;exitY=1;exitDx=0;exitDy=0;entryX=0.5;entryY=0;entryDx=0;entryDy=0;" edge="1" parent="1" source="100" target="27">
                    <mxGeometry relative="1" as="geometry">
                        <mxPoint x="600" y="770" as="sourcePoint"/>
                        <mxPoint x="530" y="840" as="targetPoint"/>
                    </mxGeometry>
                </mxCell>
                <mxCell id="102" value="N" style="resizable=0;html=1;align=right;verticalAlign=bottom;fontSize=11;" connectable="0" vertex="1" parent="101">
                    <mxGeometry x="1" relative="1" as="geometry">
                        <mxPoint x="20" y="-20" as="offset"/>
                    </mxGeometry>
                </mxCell>
                <mxCell id="106" value="provides_info" style="shape=rhombus;perimeter=rhombusPerimeter;whiteSpace=wrap;html=1;align=center;rounded=1;" vertex="1" parent="1">
                    <mxGeometry x="255" y="600" width="130" height="60" as="geometry"/>
                </mxCell>
                <mxCell id="109" value="sale_info" style="whiteSpace=wrap;html=1;align=center;rounded=1;" vertex="1" parent="1">
                    <mxGeometry x="-160" y="540.13" width="100" height="40" as="geometry"/>
                </mxCell>
                <mxCell id="110" value="sale_predict&lt;span style=&quot;color: rgba(0, 0, 0, 0); font-family: monospace; font-size: 0px; text-align: start;&quot;&gt;%3CmxGraphModel%3E%3Croot%3E%3CmxCell%20id%3D%220%22%2F%3E%3CmxCell%20id%3D%221%22%20parent%3D%220%22%2F%3E%3CmxCell%20id%3D%222%22%20value%3D%22sale_info%22%20style%3D%22whiteSpace%3Dwrap%3Bhtml%3D1%3Balign%3Dcenter%3Brounded%3D1%3B%22%20vertex%3D%221%22%20parent%3D%221%22%3E%3CmxGeometry%20x%3D%22-160%22%20y%3D%22540.13%22%20width%3D%22100%22%20height%3D%2240%22%20as%3D%22geometry%22%2F%3E%3C%2FmxCell%3E%3C%2Froot%3E%3C%2FmxGraphModel%3E&lt;/span&gt;" style="whiteSpace=wrap;html=1;align=center;rounded=1;" vertex="1" parent="1">
                    <mxGeometry y="720" width="100" height="40" as="geometry"/>
                </mxCell>
                <mxCell id="111" value="category" style="whiteSpace=wrap;html=1;align=center;rounded=1;" vertex="1" parent="1">
                    <mxGeometry x="540" y="720" width="100" height="40" as="geometry"/>
                </mxCell>
                <mxCell id="112" value="equity_info" style="whiteSpace=wrap;html=1;align=center;rounded=1;" vertex="1" parent="1">
                    <mxGeometry x="670" y="540.13" width="100" height="40" as="geometry"/>
                </mxCell>
                <mxCell id="113" value="" style="endArrow=none;html=1;rounded=0;entryX=0;entryY=0.5;entryDx=0;entryDy=0;exitX=1;exitY=0.5;exitDx=0;exitDy=0;" edge="1" parent="1" source="100" target="111">
                    <mxGeometry relative="1" as="geometry">
                        <mxPoint x="390" y="785.1800000000001" as="sourcePoint"/>
                        <mxPoint x="390" y="855.1800000000001" as="targetPoint"/>
                    </mxGeometry>
                </mxCell>
                <mxCell id="114" value="M" style="resizable=0;html=1;align=right;verticalAlign=bottom;" connectable="0" vertex="1" parent="113">
                    <mxGeometry x="1" relative="1" as="geometry">
                        <mxPoint x="-30" y="30" as="offset"/>
                    </mxGeometry>
                </mxCell>
                <mxCell id="115" value="" style="endArrow=none;html=1;rounded=0;entryX=0;entryY=0;entryDx=0;entryDy=0;exitX=0.985;exitY=0.938;exitDx=0;exitDy=0;exitPerimeter=0;" edge="1" parent="1" source="2" target="39">
                    <mxGeometry relative="1" as="geometry">
                        <mxPoint x="370" y="310" as="sourcePoint"/>
                        <mxPoint x="434.7993866870697" y="234.20375624907706" as="targetPoint"/>
                    </mxGeometry>
                </mxCell>
                <mxCell id="116" value="" style="endArrow=none;html=1;rounded=0;exitX=0;exitY=0.5;exitDx=0;exitDy=0;" edge="1" parent="1" source="2" target="4">
                    <mxGeometry relative="1" as="geometry">
                        <mxPoint x="380" y="300" as="sourcePoint"/>
                        <mxPoint x="460" y="350" as="targetPoint"/>
                    </mxGeometry>
                </mxCell>
            </root>
        </mxGraphModel>
    </diagram>
</mxfile>